<svg xmlns="http://www.w3.org/2000/svg" xmlns:xlink="http://www.w3.org/1999/xlink" width="128" height="128"><path fill="#D8D8D8" d="M128 113.729c0 7.883-6.389 14.271-14.271 14.271H14.271C6.39 128 0 121.611 0 113.729V14.271C0 6.39 6.39 0 14.271 0h99.458C121.611 0 128 6.39 128 14.271v99.458z"/><g opacity=".35"><defs><path id="a" opacity=".35" d="M128 113.729c0 7.883-6.389 14.271-14.271 14.271H14.271C6.39 128 0 121.611 0 113.729V14.271C0 6.39 6.39 0 14.271 0h99.458C121.611 0 128 6.39 128 14.271v99.458z"/></defs><clipPath id="b"><use xlink:href="#a" overflow="visible"/></clipPath><g clip-path="url(#b)"><linearGradient id="c" gradientUnits="userSpaceOnUse" x1="54.913" y1="-93.723" x2="54.913" y2="25.063" gradientTransform="rotate(135 61.483 17.865) scale(1.6443 1.102)"><stop offset="0" stop-color="#231f20"/><stop offset="1" stop-color="#231f20" stop-opacity="0"/></linearGradient><path opacity=".77" fill="url(#c)" d="M63.665 187.003L189.871 60.794 97.316-31.761-28.891 94.447z"/></g><g clip-path="url(#b)"><linearGradient id="d" gradientUnits="userSpaceOnUse" x1="415.2" y1="-288.024" x2="523.743" y2="-288.025" gradientTransform="matrix(.1678 -.1678 .2286 .2286 99.424 257.405)"><stop offset="0" stop-color="#231f20" stop-opacity="0"/><stop offset=".5" stop-color="#231f20"/><stop offset="1" stop-color="#231f20" stop-opacity="0"/></linearGradient><path fill="url(#d)" d="M107.873 90.128l-18.209 18.209 27.153 27.152 18.209-18.209z"/></g><g clip-path="url(#b)"><linearGradient id="e" gradientUnits="userSpaceOnUse" x1="613.9" y1="-585.672" x2="722.442" y2="-585.672" gradientTransform="matrix(.1678 .1678 -.2555 .2555 -149.961 53.594)"><stop offset="0" stop-color="#231f20" stop-opacity="0"/><stop offset=".5" stop-color="#231f20"/><stop offset="1" stop-color="#231f20" stop-opacity="0"/></linearGradient><path fill="url(#e)" d="M136.026 10.001L117.817-8.208 87.472 22.139l18.209 18.209z"/></g><g clip-path="url(#b)"><linearGradient id="f" gradientUnits="userSpaceOnUse" x1="936.24" y1="-281.793" x2="1044.784" y2="-281.794" gradientTransform="rotate(135.001 100.45 -87.215) scale(.2373 .3581)"><stop offset="0" stop-color="#231f20" stop-opacity="0"/><stop offset=".5" stop-color="#231f20"/><stop offset="1" stop-color="#231f20" stop-opacity="0"/></linearGradient><path fill="url(#f)" d="M20.923 41.745l18.209-18.209L9.054-6.541-9.155 11.668z"/></g><g clip-path="url(#b)"><linearGradient id="g" gradientUnits="userSpaceOnUse" x1="-43.789" y1="71.466" x2="64.754" y2="71.465" gradientTransform="matrix(.1678 .1678 -.2509 .2509 31.515 92.79)"><stop offset="0" stop-color="#231f20" stop-opacity="0"/><stop offset=".5" stop-color="#231f20"/><stop offset="1" stop-color="#231f20" stop-opacity="0"/></linearGradient><path fill="url(#g)" d="M39.347 106.683l-18.208-18.21-29.808 29.808L9.54 136.49z"/></g></g><path fill="#F7F7F7" d="M112 101.384c0 5.862-4.754 10.616-10.616 10.616H26.616C20.753 112 16 107.246 16 101.384V26.616C16 20.753 20.753 16 26.616 16h74.768C107.246 16 112 20.753 112 26.616v74.768z"/><path d="M54.514 73.181c-.438-2.405-.347-4.573.273-6.506.619-1.93 1.476-3.663 2.57-5.194a24.024 24.024 0 013.772-4.155 143.285 143.285 0 003.991-3.608c1.238-1.166 2.296-2.333 3.171-3.5.875-1.165 1.313-2.441 1.313-3.827 0-2.332-.766-4.063-2.297-5.194-1.531-1.129-3.462-1.695-5.795-1.695-2.26 0-4.264.475-6.014 1.422-1.75.948-3.463 2.151-5.14 3.608l-8.967-8.201c2.625-2.915 5.722-5.285 9.295-7.108 3.571-1.821 7.545-2.734 11.919-2.734 3.133 0 6.069.366 8.802 1.094 2.733.729 5.102 1.842 7.107 3.335a16.344 16.344 0 014.757 5.577c1.166 2.225 1.75 4.83 1.75 7.818 0 2.406-.438 4.502-1.313 6.288-.875 1.787-1.968 3.39-3.28 4.812s-2.698 2.752-4.155 3.991a45.56 45.56 0 00-4.046 3.882c-1.24 1.35-2.225 2.806-2.952 4.374-.729 1.568-.984 3.408-.766 5.521H54.514zm7.436 29.197c-3.135 0-5.741-1.039-7.818-3.117-2.078-2.077-3.116-4.756-3.116-8.037 0-3.28 1.039-5.922 3.116-7.928 2.078-2.004 4.684-3.007 7.818-3.007 3.133 0 5.741 1.003 7.818 3.007 2.078 2.006 3.117 4.647 3.117 7.928 0 3.281-1.039 5.96-3.117 8.037-2.078 2.078-4.685 3.117-7.818 3.117z"/></svg>